# xmcd
#
# Track frame offsets: 
#        150
#        28795
#        32012
#        56102
#        81680
#        88010
#        122477
#        124383
#        149069
#        181481
#        219119
#        262755
#
# Disc length: 4687 seconds
#
# Revision: 0
# Processed by: cddbd v1.5.2PL0 Copyright (c) Steve Scherf et al.
# Submitted via: ExactAudioCopy v1.0b4
#
DISCID=b0124d0c
DTITLE=Albert Collins and The Icebreakers - Live At Onkel Po's Carnegie 
DTITLE=Hall - CD2
DYEAR=2017
DGENRE=Blues
TTITLE0=Mojo Working
TTITLE1=Announcement III
TTITLE2=I'm Fed Up With This Music
TTITLE3=She's Fine
TTITLE4=Announcement IV
TTITLE5=Mustang Sally
TTITLE6=Announcement V
TTITLE7=Things I Used To Do
TTITLE8=Caledonia
TTITLE9=Master Charge
TTITLE10=Conversations With Collins
TTITLE11=Cold Cuts
EXTD=
EXTT0=
EXTT1=
EXTT2=
EXTT3=
EXTT4=
EXTT5=
EXTT6=
EXTT7=
EXTT8=
EXTT9=
EXTT10=
EXTT11=
PLAYORDER=
